<?xml version="1.0" encoding="utf-8"?>
<!-- Generator: Adobe Illustrator 21.0.2, SVG Export Plug-In . SVG Version: 6.00 Build 0)  -->
<svg version="1.1" xmlns="http://www.w3.org/2000/svg" xmlns:xlink="http://www.w3.org/1999/xlink" x="0px" y="0px"
	 viewBox="0 0 512 354" style="enable-background:new 0 0 512 354;" xml:space="preserve">
<g id="Layer_2">
</g>
<g id="Layer_1">
	<g>
		<path d="M512,4c0,115.3,0,230.7,0,346c-2.5,3-5.6,4-9.5,4c-164.3-0.1-328.6-0.1-492.9,0c-4,0-7.1-1-9.5-4C0,234.7,0,119.3,0,4
			c2.5-3,5.6-4,9.5-4c164.3,0.1,328.6,0.1,492.9,0C506.4,0,509.5,1,512,4z M472.6,314.9c0-79.2,0-157.8,0-237.6
			C399.9,130.5,328,183.2,256,236c-72.2-52.9-144-105.6-216.6-158.8c0,80,0,158.7,0,237.6C183.9,314.9,328,314.9,472.6,314.9z
			 M55.1,39.1c-0.1,0.3-0.3,0.7-0.4,1c2.5,1.9,5,3.7,7.6,5.6c63.3,46.4,126.5,92.8,189.8,139.2c2.5,1.8,4.3,2.8,7.3,0.5
			C324.4,137.5,389.6,89.8,454.7,42c1-0.7,2.3-1,3.4-1.5c-0.5-0.5-0.9-1-1.4-1.4C322.9,39.1,189,39.1,55.1,39.1z"/>
	</g>
</g>
</svg>
